<svg xmlns="http://www.w3.org/2000/svg" width="100" height="100" viewBox="0 0 100 100">
  <style>.a{fill:#d20001;}</style>
  <rect width="100" height="100" fill="#FFF"/>
  <path d="M15.9 79.2c-1 0-1.6 0.7-1.7 2h3.7C17.7 79.9 17.3 79.2 15.9 79.2z" class="a"/>
  <path d="M14.4 67.4c1.7 0 2.6-1.5 2.6-4.2 -0.1-2.6-1.1-4-2.7-4 -1.1 0-2 0.6-2.7 1.5v5.1C12.1 66.8 13.1 67.4 14.4 67.4z" class="a"/>
  <path d="M69.6 79.6c-0.6 0-1.1 0.2-1.6 0.6v5c0.5 0.4 0.9 0.6 1.6 0.6 0.9 0 1.4-0.6 1.4-3C71 80.2 70.5 79.6 69.6 79.6z" class="a"/>
  <path d="M26.2 65.9v-2c-0.7-0.4-1.4-0.6-2.7-0.6 -1.5 0-2.4 0.7-2.4 2 0 1.5 0.8 2.2 2.1 2.2C24.5 67.4 25.5 66.8 26.2 65.9z" class="a"/>
  <path d="M55.1 79.5c-1.2 0-1.8 0.9-1.8 3.2 0 2.2 0.6 3.2 1.8 3.2 1.2 0 1.8-1 1.8-3.2C56.9 80.5 56.3 79.5 55.1 79.5z" class="a"/>
  <path d="M51.4 67.4c1.3 0 2.3-0.7 3-1.6v-2c-0.7-0.4-1.4-0.6-2.7-0.6 -1.5 0-2.4 0.7-2.4 2C49.3 66.8 50.1 67.4 51.4 67.4z" class="a"/>
  <path d="M0 0v100h100V0H0zM69.4 54.3c0.6 0 1 0.5 1 1.1 0 0.5-0.5 1-1 1 -0.6 0-1.1-0.5-1.1-1C68.3 54.8 68.8 54.3 69.4 54.3zM70.1 58.3v10.3H68.6V58.3H70.1zM61.8 58.2c1.3 0 2.2 0.6 2.9 1.4v-1.2h1.5v9.4c0 2.9-1.4 4.4-5.2 4.6l-0.5-1.1c3.4-0.1 4.2-1 4.2-3.4v-0.5c-0.7 0.8-1.7 1.5-3.1 1.5 -2.1 0-3.7-1.6-3.7-5.2C57.9 60 59.6 58.2 61.8 58.2zM51.8 62.2c1 0 2 0.3 2.6 0.6V61.6c0-1.5-0.7-2.3-2.2-2.3 -1.1 0-2 0.3-2.8 0.8l-0.6-1.2c0.9-0.5 2.1-0.8 3.5-0.8 2.2 0 3.6 0.9 3.6 3.3v7.2h-1.5v-1.3c-0.7 0.8-1.7 1.5-3.2 1.5 -1.6 0-3.3-0.8-3.3-3.3C47.9 63.2 49.8 62.2 51.8 62.2zM39.3 55.1l1.5-0.8v8.9 0.5l0.4-0.6 3.4-4.8h1.7l-2.7 3.7 3.3 6.7h-1.7v-0.1l-2.6-5.4 -1.8 2.5v3h-1.5V55.1zM10.1 58.3h1.5v1.2c0.7-0.8 1.7-1.5 3.1-1.5 2.1 0 3.7 1.6 3.7 5.2 0 3.7-1.8 5.6-3.9 5.6 -1.3 0-2.2-0.6-2.9-1.4v4.1l-1.5 0.9L10.1 58.3 10.1 58.3zM21.9 84h-7.7c0.1 1.4 1 2.1 2.2 2.1 1.1 0 2.1-0.2 3.4-0.9l1.7 2.9c-1.6 0.9-3.3 1.5-5.3 1.5 -3.9 0-6.1-2.8-6.1-6.8 0-4.5 2.5-6.8 6-6.8 3.6 0 5.8 2.4 5.8 7.2C21.9 83.5 21.9 83.8 21.9 84zM19.7 65.5c0-2.3 1.9-3.3 3.9-3.3 1 0 2 0.3 2.6 0.6V61.6c0-1.5-0.7-2.3-2.2-2.3 -1.1 0-2 0.3-2.8 0.8l-0.6-1.2c0.9-0.5 2.1-0.8 3.5-0.8 2.2 0 3.6 0.9 3.6 3.3v7.2h-1.5v-1.3c-0.7 0.8-1.7 1.5-3.2 1.5C21.4 68.7 19.7 67.9 19.7 65.5zM36 89.1h-4.5v0.1 -0.1 -0.7c-0.8 0.6-1.7 1.1-3.3 1.1 -2.9 0-4.2-1.9-4.2-5.3v-8h4.5v7.4c0 1.7 0.6 2.1 1.5 2.1 0.9 0 1.5-0.4 1.5-2.1v-7.5h4.5L36 89.1 36 89.1zM34.2 67.5c1 0 1.7-0.4 2.4-1.1l0.9 0.9c-0.9 0.9-1.9 1.4-3.3 1.4 -2.3 0-4.3-1.7-4.3-5.3 0-3.8 2.3-5.4 4.4-5.4 1.4 0 2.5 0.5 3.3 1.2l-1 1.1c-0.7-0.7-1.4-1-2.5-1 -1.6 0-2.8 1.5-2.8 4S32.4 67.5 34.2 67.5zM47 81.1c-0.6-0.6-1.2-1.1-2.1-1.1 -1.1 0-1.8 0.5-1.8 2.1v7.1h-4.5V76.2h4.5v0.9c0.8-0.7 1.6-1.2 2.8-1.2 0.9 0 1.6 0.2 2.1 0.5L47 81.1zM55.1 89.5c-3.6 0-6.2-2.3-6.2-6.8 0-4.5 2.6-6.8 6.2-6.8 3.6 0 6.2 2.2 6.2 6.8C61.3 87.2 58.7 89.5 55.1 89.5zM70.9 89.5c-1.3 0-2.2-0.6-2.9-1.1v3.9l-4.5 1.8V76.2h4.5v0.9c0.9-0.7 1.7-1.2 3.1-1.2 2.5 0 4.3 1.9 4.3 6.8C75.4 87.3 73.7 89.5 70.9 89.5zM73.7 62.6v6h-1.5V58.3h1.5v1.2c0.6-0.9 1.6-1.5 2.8-1.5 2.2 0 3.6 1.3 3.6 4.2v6.3h-1.4v0.1 -0.1 -5.9c0-2.2-0.8-3.2-2.4-3.2C74.9 59.4 73.7 60.4 73.7 62.6zM89 84h-7.7c0.1 1.4 1 2.1 2.2 2.1 1.1 0 2.1-0.2 3.4-0.9l1.7 2.9c-1.6 0.9-3.3 1.5-5.3 1.5 -3.9 0-6.1-2.8-6.1-6.8 0-4.5 2.5-6.8 6-6.8 3.6 0 5.8 2.4 5.8 7.2C89 83.5 89 83.8 89 84zM89.9 67.7c0 2.9-1.4 4.4-5.2 4.6l-0.5-1.1c3.4-0.1 4.2-1 4.2-3.4v-0.5c-0.7 0.8-1.7 1.5-3.1 1.5 -2.1 0-3.7-1.6-3.7-5.2 0-3.7 1.7-5.5 3.9-5.5 1.3 0 2.2 0.6 2.9 1.4v-1.2h1.5V67.7L89.9 67.7z" class="a"/>
  <path d="M85.6 59.3c-1.7 0-2.6 1.5-2.6 4.2 0 2.6 1 3.9 2.6 3.9 1.1 0 2-0.6 2.7-1.5v-5h0.1C87.8 60 86.8 59.3 85.6 59.3z" class="a"/>
  <path d="M62 67.3c1.1 0 2-0.6 2.7-1.5v-5h0.1c-0.6-0.9-1.6-1.6-2.8-1.6 -1.7 0-2.6 1.5-2.6 4.2C59.4 66.1 60.4 67.3 62 67.3z" class="a"/>
  <path d="M83 79.2c-1 0-1.6 0.7-1.7 2h3.7C84.8 79.9 84.4 79.2 83 79.2z" class="a"/>
</svg>
